<?xml version="1.0" encoding="utf-8"?>
<!-- Generator: Adobe Illustrator 27.6.1, SVG Export Plug-In . SVG Version: 6.00 Build 0)  -->
<svg version="1.1" id="Layer_1" xmlns="http://www.w3.org/2000/svg" xmlns:xlink="http://www.w3.org/1999/xlink" x="0px" y="0px"
	 viewBox="0 0 512 512" style="enable-background:new 0 0 512 512;" xml:space="preserve">
<style type="text/css">
	.st0{fill:none;}
</style>
<g id="outercircle">
	<circle class="st0" cx="256" cy="256" r="256"/>
</g>
<g id="innercircle">
	<circle class="st0" cx="256" cy="256" r="211.2"/>
</g>
<g id="keyhole">
	<path class="st0" d="M282,250.9c14.7-8.8,24.6-25,24.6-43.4c0-27.9-22.6-50.6-50.6-50.6s-50.6,22.6-50.6,50.6
		c0,18.4,9.9,34.5,24.6,43.4l-23.7,85.7c-2.6,9.4,4.5,18.6,14.2,18.6h71.1c9.7,0,16.8-9.3,14.2-18.6L282,250.9z"/>
</g>
<g id="brackets">
	<path class="st0" d="M443.9,251.3V278c-12.1,0-20.5,2.4-25.2,7.3c-4.7,4.8-7.1,12.5-7.1,23.1v22c0,13.8-2,24.7-6,32.7
		c-4,8-9.5,13.9-16.6,17.7c-7.1,3.8-15.3,6.2-24.7,7.3c-9.4,1.1-19.4,1.7-30.1,1.7v-37.2c11.7,0,19.5-2.1,23.5-6.2
		c4-4.1,6-11.3,6-21.6v-28.9c0-5.3,1.1-10.5,3.2-15.8c2.1-5.3,6-10.1,11.7-14.4c5.7-4.3,13.8-7.8,24.3-10.4
		C413.3,252.6,427,251.3,443.9,251.3z M443.9,234v44.1h-45V234H443.9z M334.2,122.3c10.6,0,20.7,0.6,30.1,1.7
		c9.4,1.2,17.6,3.6,24.7,7.4c7.1,3.8,12.6,9.7,16.6,17.7c4,8,6,18.9,6,32.6v22c0,10.5,2.4,18.2,7.1,23.1c4.7,4.8,13.2,7.3,25.2,7.3
		v26.9c-16.9,0-30.6-1.3-41.1-4c-10.5-2.7-18.6-6.2-24.3-10.5c-5.7-4.3-9.6-9.1-11.7-14.4c-2.1-5.3-3.2-10.5-3.2-15.8v-28.8
		c0-10.4-2-17.6-6-21.6c-4-4.1-11.8-6.1-23.5-6.1V122.3z"/>
	<path class="st0" d="M68.1,260.7V234c12.1,0,20.5-2.4,25.2-7.3c4.7-4.8,7.1-12.5,7.1-23.1v-22c0-13.8,2-24.7,6-32.7
		c4-8,9.5-13.9,16.6-17.7c7.1-3.8,15.3-6.2,24.7-7.3c9.4-1.1,19.4-1.7,30.1-1.7v37.2c-11.7,0-19.5,2.1-23.5,6.2
		c-4,4.1-6,11.3-6,21.6v28.9c0,5.3-1.1,10.5-3.2,15.8c-2.1,5.3-6,10.1-11.7,14.4c-5.7,4.3-13.8,7.8-24.3,10.4
		C98.7,259.4,85,260.7,68.1,260.7z M68.1,278v-44.1h45V278H68.1z M177.8,389.7c-10.6,0-20.7-0.6-30.1-1.7
		c-9.4-1.2-17.6-3.6-24.7-7.4c-7.1-3.8-12.6-9.7-16.6-17.7c-4-8-6-18.9-6-32.6v-22c0-10.5-2.4-18.2-7.1-23.1
		c-4.7-4.8-13.2-7.3-25.2-7.3v-26.9c16.9,0,30.6,1.3,41.1,4c10.5,2.7,18.6,6.2,24.3,10.5c5.7,4.3,9.6,9.1,11.7,14.4
		c2.1,5.3,3.2,10.5,3.2,15.8v28.8c0,10.4,2,17.6,6,21.6c4,4.1,11.8,6.1,23.5,6.1V389.7z"/>
</g>
</svg>
